<?xml version="1.0" standalone="no"?>
<!DOCTYPE svg PUBLIC "-//W3C//DTD SVG 20010904//EN"
 "http://www.w3.org/TR/2001/REC-SVG-20010904/DTD/svg10.dtd">
<svg version="1.0" xmlns="http://www.w3.org/2000/svg"
 width="500.000000pt" height="500.000000pt" viewBox="0 0 500.000000 500.000000"
 preserveAspectRatio="xMidYMid meet">
<metadata>
Created by potrace 1.14, written by Peter Selinger 2001-2017
</metadata>
<g transform="translate(0.000000,500.000000) scale(0.100000,-0.100000)"
fill="#000000" stroke="none">
<path d="M2338 4125 c-2 -2 -33 -6 -68 -9 -74 -7 -76 -7 -190 -34 -129 -31
-183 -50 -320 -115 -409 -193 -703 -585 -795 -1062 -36 -188 -41 -513 -9 -691
64 -361 202 -642 424 -864 289 -289 671 -433 1145 -431 163 1 349 30 492 77
85 28 280 119 334 156 257 176 413 352 541 613 72 144 132 341 153 500 3 17 7
50 11 75 10 73 12 329 3 410 -14 131 -18 153 -38 241 -50 219 -165 451 -304
614 -189 221 -432 377 -710 456 -93 26 -136 35 -302 58 -59 9 -359 13 -367 6z
m251 -309 c230 -59 426 -236 555 -501 50 -103 61 -131 101 -258 20 -65 52
-209 60 -277 27 -210 27 -492 0 -660 -2 -14 -6 -45 -10 -70 -17 -113 -64 -271
-118 -392 -67 -151 -199 -305 -314 -366 -222 -118 -530 -87 -728 73 -58 47
-155 144 -155 156 0 3 -11 19 -25 35 -41 47 -142 255 -170 351 -47 157 -55
186 -75 305 -26 158 -34 255 -34 438 0 206 8 289 40 455 67 338 251 603 477
690 116 44 273 53 396 21z"/>
<path d="M2456 2727 c-19 -82 -35 -127 -50 -142 -19 -19 -126 -53 -226 -72
-42 -8 -42 -19 0 -26 54 -10 195 -49 213 -59 24 -12 39 -50 67 -163 24 -97 39
-135 40 -100 1 39 49 216 64 240 17 25 52 38 189 70 42 10 77 21 77 25 0 3
-44 17 -97 29 -175 42 -175 42 -212 201 -12 53 -25 101 -29 107 -4 6 -20 -43
-36 -110z"/>
</g>
</svg>
